<svg id="main_logo" data-name="main logo" xmlns="http://www.w3.org/2000/svg" viewBox="0 0 511.75 91.56">
  <defs>
    <style>
      .logo-element{fill:#000000}
    </style>
  </defs>
  <path class="logo-element" d="M146.64 36.4v40.1h8.94V27.45l-8.94 8.95z"/>
  <path class="logo-element" d="M204.23 42a13.58 13.58 0 0 0-11.89 5.77 12.35 12.35 0 0 0-10.6-5.77c-6.37 0-8.89 3.18-9.6 4.39H172v-3.18h-8.1V80h8.81V61.65c0-3.93 0-11.62 7-11.62 5.45 0 7.38 4.52 7.38 9.57V80h8.83V61.65c0-2.32-.07-6 1.34-8.17a7.11 7.11 0 0 1 6.11-3.48c6.94 0 6.94 7.43 6.94 9.57V80h8.83V58.54c0-5.45-1.31-9-2.79-10.88C215 45.82 211.44 42 204.23 42m38.44 31.12c-6.3 0-10.93-5.11-10.93-11.35 0-5.48 3.7-11.75 10.93-11.75 5.23 0 10.76 3.87 10.76 11.5 0 6.82-4.66 11.6-10.76 11.6m11-25.25h-.12A15.65 15.65 0 0 0 241.33 42c-10.19 0-18.42 8.17-18.42 19.45 0 12.25 8.42 19.8 17.92 19.8a18.12 18.12 0 0 0 12.84-5.77V80h8.1V43.21h-8.1zm31.79 25.25c-5.34 0-11-4.32-11-11.8A11 11 0 0 1 285.23 50c6.55 0 10.77 6 10.77 11.25 0 7.35-5.21 11.87-10.56 11.87m10.83-25.4h-.13c-1-1.48-4.17-5.77-11.73-5.77a19.12 19.12 0 0 0-18.76 19.3c0 12.32 9.88 20 18.83 20 7.5 0 10.87-4.22 12.07-5.92l.13.15c-.47 8-6.3 11.46-11.26 11.46a11.29 11.29 0 0 1-9.11-4.1h-10.05C269.42 91 277.19 95 284.76 95c7 0 20.11-4.05 20.11-21.75v-30h-8.57zm46.48-5.81a13.85 13.85 0 0 0-10.07 4.44v-3.18h-8.15V80h8.83V62.44c0-3.08 0-6.93 1.6-9.2A7.57 7.57 0 0 1 341 50c7.43 0 7.43 8.76 7.43 11.82V80h8.81V60.07c0-2.84 0-9-3.4-13.06a15 15 0 0 0-11.08-5.09m38.12 31.16C374.59 73.08 370 68 370 61.73c0-5.48 3.7-11.75 10.93-11.75 5.26 0 10.76 3.87 10.76 11.5 0 6.82-4.64 11.6-10.76 11.6m11-25.25h-.13a15.72 15.72 0 0 0-12.21-5.92c-10.22 0-18.44 8.17-18.44 19.45 0 12.25 8.42 19.8 17.92 19.8a18.16 18.16 0 0 0 12.86-5.77V80H400V43.17h-8.1z" transform="translate(-2.89 -3.45)"/>
  <path class="logo-element" d="M414.7 27.45h-8.84v12.28h-4.31v7.83h4.31v28.96h8.84V47.56h5.31v-7.83h-5.31V27.45z"/>
  <path class="logo-element" d="M458.92 73.08c-5.57 0-10.81-4.52-10.81-11.46A11.28 11.28 0 0 1 458.92 50c5.51 0 10.71 5 10.71 11.67 0 5.85-4.27 11.42-10.71 11.42m0-31.17a19.63 19.63 0 0 0 0 39.25 19.2 19.2 0 0 0 19.52-19.69 19.47 19.47 0 0 0-19.52-19.57m41.27 0a13.79 13.79 0 0 0-10.07 4.44v-3.18h-8.17V80h8.83V62.44c0-3.08 0-6.93 1.6-9.2a7.59 7.59 0 0 1 6-3.24c7.43 0 7.43 8.76 7.43 11.82V80h8.81V60.07c0-2.84 0-9-3.4-13.06a15 15 0 0 0-11.06-5.09" transform="translate(-2.89 -3.45)"/>
  <path class="logo-element" d="M307.33 39.73h8.89v36.83h-8.89zm116.61 0h8.89v36.83h-8.89z"/>
  <path class="logo-device" d="M74.25 22.18a39.33 39.33 0 0 1 2.85 8.59h45.81v49.31h-49.3V37.8a35.13 35.13 0 0 0-4.14-15.62 35.37 35.37 0 1 0-8.7 43.9V53.3A26.75 26.75 0 1 1 65 38.67v50h66.49V22.18z" transform="translate(-2.89 -3.45)"/>
</svg>