<?xml version="1.0" encoding="utf-8"?>
<!-- Generator: Adobe Illustrator 19.1.0, SVG Export Plug-In . SVG Version: 6.00 Build 0)  -->
<svg version="1.1" xmlns="http://www.w3.org/2000/svg" xmlns:xlink="http://www.w3.org/1999/xlink" x="0px" y="0px"
	 viewBox="0 0 25 25" style="enable-background:new 0 0 25 25;" xml:space="preserve">
<style type="text/css">
	.logo{fill:#000000;stroke:#000000;stroke-miterlimit:10;}
</style>
<g id="Layer_1">
	<path class="logo" d="M13.3,5.7l0-0.2c0-0.8-0.2-1.6-0.6-2.3l0-0.1c-0.9-1.8-2.8-2.9-4.8-2.9c-3,0-5.4,2.4-5.4,5.4
		c0,3,2.4,5.4,5.4,5.4c1.2,0,2.4-0.4,3.4-1.2l0-1.3c-0.8,1-2.1,1.5-3.4,1.5c-2.5,0-4.5-2-4.5-4.5s2-4.5,4.5-4.5c2.5,0,4.5,2,4.5,4.5
		v7.7h10.1V3.3H14c0.1,0.3,0.2,0.6,0.3,0.9h7.3v8.3h-8.3L13.3,5.7"/>
</g>
</svg>
