<svg xmlns="http://www.w3.org/2000/svg" viewBox="0 0 550 550"><defs><style>.cls-1{fill:#fff;}.cls-2,.cls-3{fill:none;stroke:#fff;stroke-linecap:round;stroke-width:12.5px;}.cls-2{stroke-miterlimit:10;}.cls-3{stroke-linejoin:round;}</style></defs><title>products-networking</title><g id="networking"><g id="icon"><path class="cls-1" d="M271.5,401.75h-22a6.25,6.25,0,0,1,0-12.5h22a6.25,6.25,0,0,1,0,12.5Zm-44,0h-22a6.25,6.25,0,0,1,0-12.5h22a6.25,6.25,0,0,1,0,12.5Zm-51-29a6.25,6.25,0,0,1-6.25-6.25v-22a6.25,6.25,0,0,1,12.5,0v22A6.25,6.25,0,0,1,176.5,372.75Zm0-44a6.25,6.25,0,0,1-6.25-6.25v-22a6.25,6.25,0,0,1,12.5,0v22A6.25,6.25,0,0,1,176.5,328.75Zm217-33a6.25,6.25,0,0,1-6.25-6.25v-22a6.25,6.25,0,0,1,12.5,0v22A6.25,6.25,0,0,1,393.5,295.75Zm-217-11a6.25,6.25,0,0,1-6.25-6.25v-22a6.25,6.25,0,0,1,12.5,0v22A6.25,6.25,0,0,1,176.5,284.75Zm217-33a6.25,6.25,0,0,1-6.25-6.25v-22a6.25,6.25,0,0,1,12.5,0v22A6.25,6.25,0,0,1,393.5,251.75Zm0-44a6.25,6.25,0,0,1-6.25-6.25v-22a6.25,6.25,0,0,1,12.5,0v22A6.25,6.25,0,0,1,393.5,207.75Zm-24-49h-22a6.25,6.25,0,0,1,0-12.5h22a6.25,6.25,0,0,1,0,12.5Zm-44,0h-22a6.25,6.25,0,0,1,0-12.5h22a6.25,6.25,0,0,1,0,12.5Zm-44,0h-22a6.25,6.25,0,0,1,0-12.5h22a6.25,6.25,0,0,1,0,12.5Z"/><circle class="cls-2" cx="394" cy="152" r="23.75"/><circle class="cls-2" cx="176" cy="395" r="23.75"/><rect class="cls-3" x="318.5" y="320.5" width="110" height="75" rx="5" ry="5"/><rect class="cls-3" x="293.5" y="295.5" width="160" height="125" rx="10" ry="10"/><rect class="cls-3" x="121.5" y="119.5" width="110" height="75" rx="5" ry="5"/><path class="cls-3" d="M139.5,219.5h75a0,0,0,0,1,0,0v30a5,5,0,0,1-5,5h-65a5,5,0,0,1-5-5v-30A0,0,0,0,1,139.5,219.5Z"/><path class="cls-3" d="M336.5,420.5h75a0,0,0,0,1,0,0v30a5,5,0,0,1-5,5h-65a5,5,0,0,1-5-5v-30A0,0,0,0,1,336.5,420.5Z"/><rect class="cls-3" x="96.5" y="94.5" width="160" height="125" rx="10" ry="10"/></g></g></svg>