<svg xmlns="http://www.w3.org/2000/svg" viewBox="0 0 550 550"><defs><style>.cls-1{fill:none;stroke:#fff;stroke-linecap:round;stroke-linejoin:round;stroke-width:20px;}</style></defs><title>products-graphics-processor</title><g id="graphics-processor"><g id="icon"><rect class="cls-1" x="155" y="155" width="240" height="240" rx="2" ry="2"/><rect class="cls-1" x="117.5" y="117.5" width="315" height="315" rx="25" ry="25"/><line class="cls-1" x1="82.5" y1="387.5" x2="117.5" y2="387.5"/><line class="cls-1" x1="82.5" y1="331.25" x2="117.5" y2="331.25"/><line class="cls-1" x1="82.5" y1="275" x2="117.5" y2="275"/><line class="cls-1" x1="82.5" y1="218.75" x2="117.5" y2="218.75"/><line class="cls-1" x1="82.5" y1="162.5" x2="117.5" y2="162.5"/><line class="cls-1" x1="467.5" y1="387.5" x2="432.5" y2="387.5"/><line class="cls-1" x1="467.5" y1="331.25" x2="432.5" y2="331.25"/><line class="cls-1" x1="467.5" y1="275" x2="432.5" y2="275"/><line class="cls-1" x1="467.5" y1="218.75" x2="432.5" y2="218.75"/><line class="cls-1" x1="467.5" y1="162.5" x2="432.5" y2="162.5"/><line class="cls-1" x1="387.5" y1="82.5" x2="387.5" y2="117.5"/><line class="cls-1" x1="331.25" y1="82.5" x2="331.25" y2="117.5"/><line class="cls-1" x1="275" y1="82.5" x2="275" y2="117.5"/><line class="cls-1" x1="218.75" y1="82.5" x2="218.75" y2="117.5"/><line class="cls-1" x1="162.5" y1="82.5" x2="162.5" y2="117.5"/><line class="cls-1" x1="387.5" y1="467.5" x2="387.5" y2="432.5"/><line class="cls-1" x1="331.25" y1="467.5" x2="331.25" y2="432.5"/><line class="cls-1" x1="275" y1="467.5" x2="275" y2="432.5"/><line class="cls-1" x1="218.75" y1="467.5" x2="218.75" y2="432.5"/><line class="cls-1" x1="162.5" y1="467.5" x2="162.5" y2="432.5"/></g></g></svg>