<svg id="Layer_2" data-name="Layer 2" xmlns="http://www.w3.org/2000/svg" viewBox="0 0 550 550"><defs><style>.cls-1{fill:none;stroke:#fff;stroke-linecap:round;stroke-linejoin:round;stroke-width:16px;}.cls-2{fill:#fff;}</style></defs><title>products-artificial-intelligence</title><g id="icon"><circle class="cls-1" cx="208.2" cy="89.08" r="14.08"/><circle class="cls-1" cx="321.68" cy="89.08" r="14.08"/><circle class="cls-1" cx="221.88" cy="181.64" r="14.08"/><circle class="cls-1" cx="341.8" cy="188.88" r="14.08"/><circle class="cls-1" cx="315.24" cy="275" r="14.08"/><circle class="cls-1" cx="407.8" cy="128.52" r="14.08"/><circle class="cls-1" cx="142.2" cy="122.08" r="14.08"/><circle class="cls-1" cx="89.08" cy="188.88" r="14.08"/><circle class="cls-1" cx="89.08" cy="268.56" r="14.08"/><circle class="cls-1" cx="162.32" cy="281.44" r="14.08"/><circle class="cls-1" cx="188.88" cy="348.24" r="14.08"/><circle class="cls-1" cx="281.44" cy="374.8" r="14.08"/><circle class="cls-1" cx="281.44" cy="460.92" r="14.08"/><circle class="cls-1" cx="381.24" cy="460.92" r="14.08"/><circle class="cls-1" cx="381.24" cy="354.68" r="14.08"/><circle class="cls-1" cx="460.92" cy="288.68" r="14.08"/><circle class="cls-1" cx="460.92" cy="195.32" r="14.08"/><path class="cls-2" d="M274.2,386.86v62a14,14,0,0,1,14.48,0v-62a14,14,0,0,1-14.48,0Z"/><path class="cls-2" d="M367.15,354.68a14,14,0,0,1,4.94-10.7l-65.18-21.81,11.32-33.41a14.08,14.08,0,0,1-13.72-4.65l-11.34,33.47-24.3-8.13L249,244.91l17.11-8.83,35.51,35.51a14.08,14.08,0,0,1,10.24-10.24L279.6,229.11l54.8-28.26a14.05,14.05,0,0,1-6.68-12c0-.3,0-.6,0-.91l-58.92,30.39-33.31-33.31a14.06,14.06,0,0,1-13.65,10.67,13.89,13.89,0,0,1-3.37-.42l13,42.29-61.82,31.88a14.05,14.05,0,0,1-9.68,25.85l17.65,44.39a14,14,0,0,1,11.18-5.56,13.15,13.15,0,0,1,2.28.21l-16.34-41.1,82.4,27.56,13.35,43.33L202.48,344.6a14,14,0,0,1-4,13.93l69.36,19.9a14.07,14.07,0,0,1,24.33-12.74l10.09-29.8,65.23,21.83A13.88,13.88,0,0,1,367.15,354.68ZM255.33,225.33l-10.7,5.51-7.22-23.43ZM180.89,280l55-28.36L252,303.79Zm100.87,71.25-7.64-24.78,14.41,4.82Z"/><path class="cls-2" d="M381.24,368.76a14,14,0,0,1-7.25-2v82.11a14,14,0,0,1,14.49,0V366.74A14,14,0,0,1,381.24,368.76Z"/><path class="cls-2" d="M460.92,209.41a14.09,14.09,0,0,1-14.09-14.09c0-.19,0-.38,0-.57l-52.5,28.72L355.7,191.08a14.07,14.07,0,0,1-9.3,11.1l34.31,28.75-58.36,31.93a14,14,0,0,1,4.22,20.48l116.26,10.92L385.91,341.4a14.11,14.11,0,0,1,9.24,11.16L456.24,302a14.08,14.08,0,0,1,4.68-27.36,14,14,0,0,1,7.24,2V207.38A14,14,0,0,1,460.92,209.41ZM339.48,270l53.16-29.08,45.79,38.38Zm114.19,3.16-47.39-39.7,47.39-25.92Z"/><path class="cls-2" d="M336.46,175.85l-54.11-40.41,35.41-32.84a14.05,14.05,0,0,1-8.14-20.76H220.26a14.05,14.05,0,0,1-6.72,20.27l46.21,34.53-33.94,31.48a14.11,14.11,0,0,1,9.85,10.62l35.89-33.29,56.24,42A14.1,14.1,0,0,1,336.46,175.85Zm-65.91-49.23L230,96.33h73.22Z"/><path class="cls-2" d="M459.08,181.37,421,133.46a14.07,14.07,0,0,1-11.33,9l38.1,47.92A14.07,14.07,0,0,1,459.08,181.37Z"/><path class="cls-2" d="M394,131.33l-48.17,44.06a14.09,14.09,0,0,1,9.78,10.68l48.18-44A14.13,14.13,0,0,1,394,131.33Z"/><path class="cls-2" d="M335.76,89.08a14.06,14.06,0,0,1-6.12,11.62l64.16,29.38c-.05-.51-.09-1-.09-1.56a14.08,14.08,0,0,1,6.12-11.61L335.67,87.53A13.3,13.3,0,0,1,335.76,89.08Z"/><path class="cls-2" d="M149.19,286.48a13.81,13.81,0,0,1-.95-5,14,14,0,0,1,3.46-9.22l-49.48-8.7a14,14,0,0,1-2.51,14.26Z"/><path class="cls-2" d="M89.08,254.48a14,14,0,0,1,7.25,2V201a14,14,0,0,1-14.49,0V256.5A14,14,0,0,1,89.08,254.48Z"/><path class="cls-2" d="M149.76,110.21a14.07,14.07,0,0,1,6.53,11.87c0,.37,0,.73-.06,1.09L200.65,101a14.06,14.06,0,0,1-6.54-11.88c0-.36,0-.72.06-1.08Z"/><path class="cls-2" d="M156.56,178l-5.66-44.8A14,14,0,0,1,129,127L90.92,174.93a14.07,14.07,0,0,1,10.62,20.53l42.34-2.31,9.75,77.22A14,14,0,0,1,168,268.55l-9.62-76.19,51.83-2.83a14.09,14.09,0,0,1-.78-14.46Zm-51.77,2.82,32.38-40.72,4.89,38.69Z"/></g></svg>