<svg id="imagination_university_programme" data-name="imagination university programme" xmlns="http://www.w3.org/2000/svg" viewBox="0 0 1032.71 255.52"><defs><style>.cls-1{fill:#72166b;}</style></defs><title>iup-company-logo</title><g id="programme"><path id="p" class="cls-1" d="M669.56,172a12,12,0,0,1-3.15,8.53,10.18,10.18,0,0,1-7.74,3.34,10.39,10.39,0,0,1-7.87-3.29,12,12,0,0,1-3.12-8.62,11.69,11.69,0,0,1,3.12-8.46,10.49,10.49,0,0,1,7.87-3.24,10.26,10.26,0,0,1,7.8,3.29,11.86,11.86,0,0,1,3.09,8.45m10,.11q0-9.27-5.48-15.19A17.45,17.45,0,0,0,660.77,151a16.92,16.92,0,0,0-6.77,1.36,18.58,18.58,0,0,0-5.88,4.08V152h-10v54.64h10V187.82a19.56,19.56,0,0,0,5.92,4,16.53,16.53,0,0,0,6.44,1.24,17.84,17.84,0,0,0,13.42-6,21,21,0,0,0,5.66-14.94" transform="translate(-7.68 -6.48)"/><path id="m" class="cls-1" d="M912.61,150.73c-2.77,0-8.65.27-12.82,6.22a13.31,13.31,0,0,0-11.44-6.22c-6.87,0-9.59,3.42-10.35,4.73h-.15v-3.37h-8.74v39.68h9.51V172c0-4.25,0-12.53,7.57-12.53,5.88,0,8,4.88,8,10.31v22h9.52V172c0-2.51-.07-6.44,1.45-8.82a7.69,7.69,0,0,1,6.56-3.71c7.49,0,7.49,8,7.49,10.31v22h9.52V168.62c0-5.87-1.41-9.66-3-11.73-1.41-2-5.29-6.16-13.07-6.16" transform="translate(-7.68 -6.48)"/><path id="m-2" data-name="m" class="cls-1" d="M978.39,150.73c-2.78,0-8.65.27-12.82,6.22a13.32,13.32,0,0,0-11.44-6.22c-6.87,0-9.6,3.42-10.36,4.73h-.14v-3.37h-8.74v39.68h9.5V172c0-4.25,0-12.53,7.58-12.53,5.87,0,8,4.88,8,10.31v22h9.52V172c0-2.51-.07-6.44,1.45-8.82a7.67,7.67,0,0,1,6.56-3.71c7.49,0,7.49,8,7.49,10.31v22h9.52V168.62c0-5.87-1.42-9.66-3-11.73-1.42-2-5.3-6.16-13.07-6.16" transform="translate(-7.68 -6.48)"/><path id="e" class="cls-1" d="M1040.39,173q0-9.85-5.88-15.87t-15.27-6a19.72,19.72,0,0,0-14.7,6,20.75,20.75,0,0,0-5.86,15.11,20,20,0,0,0,5.88,14.77q5.88,5.91,15.23,5.9a23.58,23.58,0,0,0,10.41-2.13,20,20,0,0,0,7.53-6.6l-8.41-3.94a13.3,13.3,0,0,1-9.6,3.91,11.63,11.63,0,0,1-7.69-2.51,10.62,10.62,0,0,1-3.71-6.74h32l0-1.9Zm-10-5.95h-21.62a13,13,0,0,1,3.66-5.15,11.92,11.92,0,0,1,7.32-2.34,11.29,11.29,0,0,1,6.75,2.08,10,10,0,0,1,3.89,5.41Z" transform="translate(-7.68 -6.48)"/><path id="a" class="cls-1" d="M842,184.34c-6.8,0-11.78-5.51-11.78-12.24,0-5.91,4-12.67,11.78-12.67,5.64,0,11.61,4.17,11.61,12.4,0,7.36-5,12.51-11.61,12.51m11.86-27.23h-.13a16.86,16.86,0,0,0-13.18-6.38c-11,0-19.87,8.81-19.87,21,0,13.22,9.08,21.36,19.33,21.36,5,0,10.84-2.63,13.85-6.22v4.93h8.74V152.09h-8.74Z" transform="translate(-7.68 -6.48)"/><path id="r" class="cls-1" d="M799.76,191.77h9.9V175.7l0-1.93q0-8.34,1.59-11.18t3.89-2.85a6.9,6.9,0,0,1,2.89.87l3.1-8.58a9.32,9.32,0,0,0-4.05-1,8.9,8.9,0,0,0-5,1.53,10.59,10.59,0,0,0-3.69,4.49v-5h-8.55v39.74Z" transform="translate(-7.68 -6.48)"/><path id="g" class="cls-1" d="M772.62,184.34c-5.77,0-11.86-4.66-11.86-12.73a11.81,11.81,0,0,1,11.6-12.16c7.07,0,11.64,6.43,11.64,12.09,0,7.92-5.62,12.8-11.38,12.8M784.29,157h-.14c-1-1.6-4.5-6.22-12.66-6.22a20.61,20.61,0,0,0-20.23,20.81c0,13.29,10.66,21.52,20.31,21.52,8.08,0,11.73-4.55,13-6.38l.15.16c-.51,8.65-6.8,12.37-12.15,12.37a12.18,12.18,0,0,1-9.83-4.43H751.91c3.41,8.87,11.79,13.17,20,13.17,7.5,0,21.68-4.37,21.68-23.47V152.09h-9.25Z" transform="translate(-7.68 -6.48)"/><path id="o" class="cls-1" d="M726.13,184.34c-6,0-11.66-4.88-11.66-12.36a12.17,12.17,0,0,1,11.66-12.53c6,0,11.55,5.37,11.55,12.58,0,6.31-4.6,12.31-11.55,12.31m0-33.61a21.17,21.17,0,0,0,0,42.33,20.7,20.7,0,0,0,21-21.23,21,21,0,0,0-21-21.1" transform="translate(-7.68 -6.48)"/><path id="r-2" data-name="r" class="cls-1" d="M684.29,191.77h9.9V175.7l0-1.93q0-8.34,1.59-11.18t3.89-2.85a6.94,6.94,0,0,1,2.89.87l3.1-8.58a9.32,9.32,0,0,0-4-1,9,9,0,0,0-5.05,1.53,10.73,10.73,0,0,0-3.69,4.49v-5h-8.54v39.74Z" transform="translate(-7.68 -6.48)"/></g><g id="university"><path id="u" class="cls-1" d="M292.66,168.66q0,9.5,1.16,13.09a15.4,15.4,0,0,0,5.65,8.11q4,2.91,10.53,2.9a18,18,0,0,0,9.89-2.49,15.53,15.53,0,0,0,5.89-7.14q1.64-3.81,1.63-14.18V152.19h-9.92v19.38q0,5.6-.62,7.31a7,7,0,0,1-2.57,3.47,7.27,7.27,0,0,1-4.21,1.18,7,7,0,0,1-4.17-1.2,6.74,6.74,0,0,1-2.46-3.36,26.36,26.36,0,0,1-.77-7.73V152.19h-10Z" transform="translate(-7.68 -6.48)"/><path id="n" class="cls-1" d="M352.31,150.84c-6.59.12-9.23,3.44-10,4.73h-.15v-3.38h-8.74v39.69H343v-19.8c0-4.24,0-12.53,7.58-12.53H351c7.49,0,7.49,8,7.49,10.32v22H368V168.73c0-5.88-1.42-9.67-3-11.73-1.39-2-5.13-6-12.59-6.16Z" transform="translate(-7.68 -6.48)"/><polygon id="i" class="cls-1" points="366.81 185.27 376.79 185.27 376.79 145.52 366.81 145.52 366.81 185.27 366.81 185.27"/><polygon id="y" class="cls-1" points="397.79 185.27 404.26 185.27 421.17 145.52 411.06 145.52 401.04 168.97 391 145.52 380.84 145.52 397.79 185.27 397.79 185.27"/><path id="e-2" data-name="e" class="cls-1" d="M470,172.86q0-9.87-5.88-15.88t-15.27-6a19.72,19.72,0,0,0-14.71,6,20.75,20.75,0,0,0-5.86,15.11,20.1,20.1,0,0,0,5.88,14.78q5.88,5.9,15.23,5.9a23.66,23.66,0,0,0,10.42-2.14,19.79,19.79,0,0,0,7.52-6.6l-8.4-3.94a13.28,13.28,0,0,1-9.61,3.91,11.67,11.67,0,0,1-7.69-2.5,10.71,10.71,0,0,1-3.71-6.74h32l0-1.9Zm-10-6H438.4a13,13,0,0,1,3.66-5.15,11.94,11.94,0,0,1,7.32-2.34,11.35,11.35,0,0,1,6.75,2.08,10.05,10.05,0,0,1,3.9,5.41Z" transform="translate(-7.68 -6.48)"/><path id="r-3" data-name="r" class="cls-1" d="M475,191.74h9.9V175.67l0-1.94q0-8.32,1.59-11.17c1.06-1.91,2.36-2.85,3.89-2.85a6.9,6.9,0,0,1,2.89.87l3.1-8.58a9.34,9.34,0,0,0-4.05-1,8.91,8.91,0,0,0-5,1.54,10.59,10.59,0,0,0-3.69,4.49v-5H475v39.74Z" transform="translate(-7.68 -6.48)"/><path id="s" class="cls-1" d="M518.94,152.67a16.2,16.2,0,0,0-7.29-1.7,13.18,13.18,0,0,0-9.29,3.35,10.52,10.52,0,0,0-3.64,8.05q0,7.31,9.64,12.17l3.36,1.68q4.35,2.19,4.35,4.49a2.75,2.75,0,0,1-1.2,2.19,5,5,0,0,1-3.18.95,9.08,9.08,0,0,1-4.18-1.26,14.24,14.24,0,0,1-4.11-3.3L497.26,186a16.59,16.59,0,0,0,13.88,6.8q6.54,0,10.43-3.55a12.11,12.11,0,0,0,1.74-15.78q-2.16-3-7.93-5.81l-3.66-1.83a11,11,0,0,1-3-1.84,2.18,2.18,0,0,1-.6-1.48,2.14,2.14,0,0,1,.94-1.77,4.3,4.3,0,0,1,2.63-.71q3.07,0,6.84,3.72l6.17-6.17a16,16,0,0,0-5.79-4.88Z" transform="translate(-7.68 -6.48)"/><polygon id="i-2" data-name="i" class="cls-1" points="522.77 185.27 532.74 185.27 532.74 145.52 522.77 145.52 522.77 185.27 522.77 185.27"/><polygon id="y-2" data-name="y" class="cls-1" points="576.43 182.3 568.25 199.81 578.55 199.81 603.45 145.52 593.22 145.52 581.83 170.46 571.51 145.52 561.32 145.52 576.43 182.3 576.43 182.3"/><polygon id="t" class="cls-1" points="552.62 132.34 543.08 132.34 543.08 145.58 538.44 145.58 538.44 154.03 543.08 154.03 543.08 185.27 552.62 185.27 552.62 154.03 558.35 154.03 558.35 145.58 552.62 145.58 552.62 132.34"/></g><g id="Imagination"><polygon id="I-3" data-name="I" class="cls-1" points="284.98 68.14 284.98 111.39 294.62 111.39 294.62 58.5 284.98 68.14"/><path id="m-3" data-name="m" class="cls-1" d="M351.65,76.89c-2.77,0-8.65.27-12.81,6.22a13.33,13.33,0,0,0-11.45-6.22c-6.87,0-9.59,3.43-10.35,4.73h-.14V78.25h-8.74v39.69h9.5V98.14c0-4.25,0-12.53,7.58-12.53,5.87,0,8,4.88,8,10.32v22h9.52V98.14c0-2.5-.08-6.44,1.44-8.81a7.68,7.68,0,0,1,6.57-3.72c7.49,0,7.49,8,7.49,10.32v22h9.52V94.78c0-5.87-1.42-9.66-3-11.73-1.42-2-5.3-6.16-13.08-6.16" transform="translate(-7.68 -6.48)"/><path id="a-2" data-name="a" class="cls-1" d="M393.11,110.5c-6.8,0-11.78-5.51-11.78-12.23,0-5.92,4-12.68,11.78-12.68,5.64,0,11.61,4.17,11.61,12.4,0,7.36-5,12.51-11.61,12.51M405,83.27h-.13a16.86,16.86,0,0,0-13.18-6.38c-11,0-19.87,8.81-19.87,21,0,13.21,9.09,21.35,19.33,21.35,5,0,10.84-2.62,13.85-6.21v4.93h8.74V78.25H405Z" transform="translate(-7.68 -6.48)"/><path id="g-2" data-name="g" class="cls-1" d="M439.26,110.5c-5.76,0-11.86-4.66-11.86-12.72A11.81,11.81,0,0,1,439,85.61c7.07,0,11.64,6.44,11.64,12.09,0,7.92-5.62,12.8-11.39,12.8m11.68-27.39h-.15c-1.05-1.6-4.5-6.22-12.65-6.22A20.62,20.62,0,0,0,417.9,97.7c0,13.29,10.66,21.52,20.31,21.52,8.08,0,11.73-4.55,13-6.38l.14.16c-.51,8.65-6.8,12.37-12.15,12.37a12.15,12.15,0,0,1-9.82-4.43H418.56c3.4,8.87,11.78,13.17,19.94,13.17,7.5,0,21.68-4.37,21.68-23.46V78.25h-9.24Z" transform="translate(-7.68 -6.48)"/><path id="n-2" data-name="n" class="cls-1" d="M501,76.85a15,15,0,0,0-10.86,4.78V78.21h-8.79V117.9h9.52V99c0-3.32,0-7.47,1.72-9.92a8.16,8.16,0,0,1,6.51-3.5c8,0,8,9.44,8,12.74V117.9h9.5V96.43c0-3.07,0-9.72-3.66-14.09A16.15,16.15,0,0,0,501,76.85" transform="translate(-7.68 -6.48)"/><path id="a-3" data-name="a" class="cls-1" d="M542.17,110.46c-6.78,0-11.79-5.51-11.79-12.24,0-5.91,4-12.67,11.79-12.67,5.67,0,11.6,4.17,11.6,12.4,0,7.36-5,12.51-11.6,12.51m11.89-27.23h-.14a17,17,0,0,0-13.17-6.38c-11,0-19.89,8.81-19.89,21,0,13.21,9.09,21.35,19.33,21.35,5,0,10.86-2.63,13.87-6.22v4.93h8.74V78.21h-8.74Z" transform="translate(-7.68 -6.48)"/><polygon id="t-2" data-name="t" class="cls-1" points="574.07 58.5 564.54 58.5 564.54 71.73 559.9 71.73 559.9 80.18 564.54 80.18 564.54 111.42 574.07 111.42 574.07 80.18 579.8 80.18 579.8 71.73 574.07 71.73 574.07 58.5"/><path id="o-2" data-name="o" class="cls-1" d="M626.33,110.46c-6,0-11.66-4.88-11.66-12.36a12.17,12.17,0,0,1,11.66-12.53c5.95,0,11.55,5.37,11.55,12.58,0,6.31-4.61,12.31-11.55,12.31m0-33.61a21.17,21.17,0,0,0,0,42.33,20.7,20.7,0,0,0,21-21.23,21,21,0,0,0-21-21.1" transform="translate(-7.68 -6.48)"/><path id="n-3" data-name="n" class="cls-1" d="M670.84,76.85A14.88,14.88,0,0,0,660,81.63V78.21h-8.81V117.9h9.51V99c0-3.32,0-7.47,1.72-9.92a8.2,8.2,0,0,1,6.51-3.5c8,0,8,9.44,8,12.74V117.9h9.5V96.43c0-3.07,0-9.72-3.66-14.09a16.14,16.14,0,0,0-11.93-5.49" transform="translate(-7.68 -6.48)"/><rect id="i-4" data-name="i" class="cls-1" x="458.28" y="71.73" width="9.59" height="39.72"/><rect id="i-5" data-name="i" class="cls-1" x="584.04" y="71.73" width="9.59" height="39.72"/></g><path id="artwork" class="cls-1" d="M214,135.25q0,10.16-6.16,16.71a20,20,0,0,1-15.17,6.56,20.36,20.36,0,0,1-15.42-6.45q-6.13-6.45-6.13-16.9,0-10.23,6.13-16.57a20.52,20.52,0,0,1,15.42-6.34A20,20,0,0,1,208,118.71q6.06,6.45,6.06,16.54M135.44,6.48A127.76,127.76,0,1,0,263.2,134.23,127.76,127.76,0,0,0,135.44,6.48Zm-74.79,168H41V115.69L60.65,96.12Zm79.93-45.18q0,20.53-3.24,28.1a30.71,30.71,0,0,1-11.68,14.16q-7.71,4.93-19.6,4.94-12.9,0-20.86-5.77A30.49,30.49,0,0,1,74,154.7q-2.3-7.12-2.3-25.94V96.12H91.58v37.76q0,11,1.51,15.31A13.31,13.31,0,0,0,98,155.85a13.93,13.93,0,0,0,8.27,2.38,14.42,14.42,0,0,0,8.34-2.34,13.73,13.73,0,0,0,5.1-6.88q1.23-3.39,1.23-14.49V96.12h19.67Zm81.93,35.41q-11.1,11.79-26.3,11.79a32.64,32.64,0,0,1-12.61-2.42,38.45,38.45,0,0,1-11.6-7.89v37H152.47V96.12H172v8.64a36.77,36.77,0,0,1,11.53-8,33.13,33.13,0,0,1,13.25-2.67q15.36,0,26.09,11.6t10.74,29.76Q233.61,153,222.51,164.75Z" transform="translate(-7.68 -6.48)"/></svg>