<svg id="full_artwork" data-name="full artwork" xmlns="http://www.w3.org/2000/svg" viewBox="0 0 255.52 255.52"><defs><style>.cls-1{fill:#ff6aed;}</style></defs><title>iup-admin</title><path class="cls-1" d="M130,2.24A127.76,127.76,0,1,0,257.76,130,127.76,127.76,0,0,0,130,2.24Zm-74.8,168H35.53V111.46L55.2,91.88Zm79.94-45.14q0,20.54-3.25,28.1a30.64,30.64,0,0,1-11.67,14.12q-7.73,4.94-19.6,4.94-12.86,0-20.86-5.76a30.43,30.43,0,0,1-11.22-16.07q-2.3-7.14-2.3-25.95V91.88H86.13v37.76q0,11,1.52,15.31a13.37,13.37,0,0,0,4.88,6.67A14,14,0,0,0,100.8,154a14.51,14.51,0,0,0,8.34-2.34,13.75,13.75,0,0,0,5.09-6.89q1.23-3.37,1.23-14.48V91.88h19.68Zm81.93,35.34q-11.12,11.78-26.3,11.78a33.09,33.09,0,0,1-12.62-2.41,38.47,38.47,0,0,1-11.6-7.89v37H147V91.88h19.53v8.65a37,37,0,0,1,11.53-8,33.19,33.19,0,0,1,13.26-2.67q15.32,0,26,11.6t10.73,29.77h0Q228.18,148.7,217.07,160.48ZM208.52,131h0q0,10.16-6.16,16.72a20,20,0,0,1-15.16,6.51,20.38,20.38,0,0,1-15.42-6.44q-6.12-6.45-6.12-16.9,0-10.23,6.12-16.58a20.56,20.56,0,0,1,15.42-6.3,20,20,0,0,1,15.28,6.45Q208.58,120.92,208.52,131Z" transform="translate(-2.24 -2.24)"/></svg>