<svg id="Layer_1" data-name="Layer 1" xmlns="http://www.w3.org/2000/svg" viewBox="0 0 24 15"><defs><style>.cls-1{fill:none;stroke:#840080;stroke-miterlimit:10;}.cls-2{fill:#840080;}</style></defs><title>view</title><path class="cls-1" d="M22,8.5s-4.48,5-10,5-10-5-10-5,4.48-5,10-5S22,8.5,22,8.5Z"/><path class="cls-1" d="M.87,6.5s5-5,11.13-5,11.13,5,11.13,5"/><path class="cls-1" d="M7.67,4.47a5.9,5.9,0,0,0,0,8.06,10.89,10.89,0,0,0,4.33,1,10.89,10.89,0,0,0,4.33-1,5.9,5.9,0,0,0,0-8.06A10.89,10.89,0,0,0,12,3.5,10.89,10.89,0,0,0,7.67,4.47Z"/><circle class="cls-2" cx="12" cy="8.5" r="2"/></svg>